<?xml version="1.0" standalone="no"?>
<!DOCTYPE svg PUBLIC "-//W3C//DTD SVG 20010904//EN"
 "http://www.w3.org/TR/2001/REC-SVG-20010904/DTD/svg10.dtd">
<svg version="1.0" xmlns="http://www.w3.org/2000/svg"
 width="500.000000pt" height="500.000000pt" viewBox="0 0 500.000000 500.000000"
 preserveAspectRatio="xMidYMid meet">

<g transform="translate(0.000000,500.000000) scale(0.100000,-0.100000)"
fill="#000000" stroke="none">
<path d="M1663 2231 c-45 -11 -77 -34 -109 -77 -40 -51 -46 -144 -14 -209 60
-125 250 -143 333 -33 117 154 -23 366 -210 319z m108 -76 c93 -49 90 -188 -5
-234 -48 -24 -93 -17 -132 20 -106 100 9 280 137 214z"/>
<path d="M3060 2200 c0 -27 3 -30 30 -30 27 0 30 3 30 30 0 27 -3 30 -30 30
-27 0 -30 -3 -30 -30z"/>
<path d="M2330 2160 c0 -29 -4 -40 -15 -40 -9 0 -15 -9 -15 -25 0 -16 6 -25
15 -25 12 0 15 -15 15 -75 0 -47 6 -87 15 -104 15 -29 58 -51 101 -51 20 0 24
5 24 28 0 21 -8 30 -33 42 -32 15 -32 16 -32 85 0 69 0 70 28 73 21 3 27 9 27
28 0 20 -5 24 -30 24 -28 0 -30 2 -30 40 0 39 -1 40 -35 40 -34 0 -35 -1 -35
-40z"/>
<path d="M2083 2111 c-26 -16 -32 -17 -37 -5 -4 9 -21 14 -51 14 -43 0 -45 -1
-45 -30 0 -20 5 -30 15 -30 12 0 15 -19 15 -110 l0 -110 34 0 34 0 4 89 c4
107 20 134 77 129 l36 -3 3 -94 c1 -52 8 -101 14 -108 6 -7 30 -13 54 -13 42
0 44 1 44 29 0 20 -6 30 -20 34 -18 5 -20 14 -20 89 -1 49 -6 89 -13 99 -32
42 -93 50 -144 20z"/>
<path d="M2570 2123 c-29 -11 -50 -36 -50 -60 0 -20 5 -23 35 -23 24 0 35 5
35 15 0 11 11 15 35 15 28 0 38 -5 44 -22 8 -21 5 -24 -41 -30 -92 -15 -138
-56 -124 -112 15 -59 100 -88 153 -51 18 13 22 13 33 0 7 -9 29 -15 51 -15 37
0 39 2 39 30 0 19 -5 30 -14 30 -20 0 -26 23 -26 100 0 93 -23 122 -101 126
-30 2 -61 1 -69 -3z m110 -158 c0 -18 -33 -64 -48 -70 -35 -11 -72 20 -56 47
12 20 104 40 104 23z"/>
<path d="M2952 2115 c-18 -8 -35 -22 -39 -32 -6 -15 -8 -14 -13 7 -5 22 -12
25 -53 28 -46 3 -47 3 -47 -27 0 -21 5 -31 15 -31 12 0 15 -19 15 -110 l0
-110 35 0 35 0 0 68 c0 85 22 133 68 146 26 7 32 14 32 37 0 36 -8 40 -48 24z"/>
<path d="M3270 2108 c-138 -71 -84 -268 74 -268 91 0 150 55 150 139 -1 64
-25 105 -77 130 -55 27 -92 27 -147 -1z m133 -67 c11 -11 19 -34 20 -54 2 -88
-109 -122 -149 -45 -20 38 -10 82 24 109 31 24 76 20 105 -10z"/>
<path d="M3030 2091 c0 -21 5 -31 15 -31 12 0 15 -18 15 -104 0 -114 1 -116
66 -116 31 0 34 3 34 29 0 16 -6 31 -15 34 -11 5 -15 30 -17 109 l-3 103 -47
3 c-47 3 -48 3 -48 -27z"/>
<path d="M1603 1710 c0 -25 2 -35 4 -22 2 12 2 32 0 45 -2 12 -4 2 -4 -23z"/>
<path d="M1641 1708 c2 -33 3 -36 6 -14 l5 29 23 -29 24 -29 -1 45 c0 38 -1
40 -7 16 l-6 -29 -14 26 c-21 39 -31 33 -30 -15z"/>
<path d="M1732 1718 c17 -52 26 -55 43 -14 9 21 14 40 11 43 -3 3 -11 -10 -19
-28 l-14 -34 -7 33 c-4 17 -11 32 -16 32 -5 0 -4 -15 2 -32z"/>
<path d="M1810 1710 c0 -37 2 -40 28 -39 23 2 24 2 5 6 -27 5 -29 18 -5 32 16
10 16 10 0 11 -26 0 -22 18 5 23 19 4 18 4 -5 6 -26 1 -28 -2 -28 -39z"/>
<path d="M1891 1708 c1 -24 3 -35 6 -25 5 21 23 23 23 2 0 -8 4 -15 8 -15 5 0
8 17 8 38 -2 30 -6 38 -24 40 -20 3 -22 -1 -21 -40z m29 23 c0 -6 -4 -13 -10
-16 -5 -3 -10 1 -10 9 0 9 5 16 10 16 6 0 10 -4 10 -9z"/>
<path d="M1964 1738 c-4 -6 2 -19 14 -29 28 -22 27 -27 0 -32 l-23 -4 23 -2
c28 -1 42 28 19 41 -22 12 -22 25 1 31 13 4 12 5 -5 6 -12 0 -25 -4 -29 -11z"/>
<path d="M2043 1710 c0 -25 2 -35 4 -22 2 12 2 32 0 45 -2 12 -4 2 -4 -23z"/>
<path d="M2080 1730 c-15 -28 4 -60 35 -60 15 0 26 7 30 20 10 32 -4 60 -30
60 -14 0 -29 -9 -35 -20z m54 -5 c8 -21 -3 -45 -20 -45 -18 0 -28 24 -20 45 3
8 12 15 20 15 7 0 16 -7 20 -15z"/>
<path d="M2181 1710 l1 -45 8 35 c5 20 5 39 -1 45 -5 5 -9 -8 -8 -35z"/>
<path d="M2232 1726 c-2 -24 -4 -27 -17 -16 -19 16 -19 0 -1 -26 19 -26 28
-14 23 32 -3 30 -4 32 -5 10z"/>
<path d="M2270 1710 c0 -35 3 -40 23 -39 16 1 18 2 5 6 -10 2 -18 11 -18 18 0
7 8 16 18 18 16 4 16 5 0 6 -10 0 -18 5 -18 10 0 5 8 12 18 14 13 4 11 5 -5 6
-20 1 -23 -4 -23 -39z"/>
<path d="M2340 1731 c0 -10 7 -21 15 -25 20 -7 19 -24 -2 -29 -14 -4 -13 -5 4
-6 32 -2 40 19 15 40 -27 21 -27 26 -4 32 13 4 11 5 -5 6 -16 1 -23 -5 -23
-18z"/>
<path d="M2493 1710 c0 -25 2 -35 4 -22 2 12 2 32 0 45 -2 12 -4 2 -4 -23z"/>
<path d="M2531 1708 c1 -39 2 -40 8 -13 l7 30 18 -27 c26 -39 36 -35 35 15 -1
38 -2 39 -8 12 l-7 -30 -18 28 c-26 38 -36 34 -35 -15z"/>
<path d="M2631 1708 c1 -37 2 -39 9 -18 5 16 8 19 9 8 2 -26 22 -33 28 -9 7
28 20 27 26 -1 4 -21 4 -21 5 2 0 14 -3 34 -8 45 -7 18 -9 18 -20 -10 l-13
-30 -10 28 c-16 40 -27 33 -26 -15z"/>
<path d="M2740 1735 c-7 -8 -10 -25 -6 -40 5 -20 13 -25 36 -25 23 0 31 5 36
25 7 29 -10 55 -36 55 -10 0 -23 -7 -30 -15z m48 -12 c12 -24 4 -43 -18 -43
-10 0 -20 6 -23 13 -5 15 10 47 23 47 5 0 13 -8 18 -17z"/>
<path d="M2830 1711 c0 -37 3 -41 24 -41 31 0 37 10 27 46 -5 19 -15 30 -29
32 -20 3 -22 -1 -22 -37z m37 -1 c0 -16 -6 -30 -12 -30 -6 0 -12 14 -12 30 0
17 6 30 12 30 6 0 12 -13 12 -30z"/>
<path d="M2913 1710 c0 -25 2 -35 4 -22 2 12 2 32 0 45 -2 12 -4 2 -4 -23z"/>
<path d="M2962 1713 c-2 -39 0 -43 21 -42 16 1 17 3 5 6 -11 3 -18 17 -21 41
l-4 37 -1 -42z"/>
<path d="M3033 1710 c0 -25 2 -35 4 -22 2 12 2 32 0 45 -2 12 -4 2 -4 -23z"/>
<path d="M3080 1724 c-6 -16 -13 -35 -15 -41 -2 -7 0 -13 5 -13 6 0 10 5 10
10 0 6 7 10 15 10 8 0 15 -4 15 -10 0 -5 4 -10 9 -10 11 0 -5 58 -20 74 -5 5
-13 -3 -19 -20z m17 -16 c-3 -8 -6 -5 -6 6 -1 11 2 17 5 13 3 -3 4 -12 1 -19z"/>
<path d="M3161 1708 c1 -24 3 -35 6 -25 5 21 23 23 23 2 0 -8 3 -15 8 -15 6 0
7 31 3 73 -1 4 -10 7 -21 7 -17 0 -20 -6 -19 -42z m29 17 c0 -8 -4 -15 -10
-15 -5 0 -10 7 -10 15 0 8 5 15 10 15 6 0 10 -7 10 -15z"/>
<path d="M3233 1710 c0 -25 2 -35 4 -22 2 12 2 32 0 45 -2 12 -4 2 -4 -23z"/>
<path d="M3285 1716 c-9 -21 -13 -41 -9 -45 4 -3 9 0 11 7 5 14 33 16 33 2 0
-5 4 -10 9 -10 11 0 -6 58 -20 74 -5 6 -15 -7 -24 -28z m25 -6 c0 -5 -5 -10
-11 -10 -5 0 -7 5 -4 10 3 6 8 10 11 10 2 0 4 -4 4 -10z"/>
<path d="M3363 1734 c-4 -11 2 -23 18 -35 23 -18 16 -26 -16 -19 -6 1 -6 -3 1
-10 13 -13 44 -3 44 16 0 7 -10 19 -22 25 -21 11 -21 12 -3 25 17 13 17 14 2
14 -10 0 -20 -7 -24 -16z"/>
</g>
</svg>
